<svg id="Layer_1" data-name="Layer 1" xmlns="http://www.w3.org/2000/svg" xmlns:xlink="http://www.w3.org/1999/xlink" viewBox="0 0 139.55 19"><defs><style>.cls-1{fill:none;}.cls-2{clip-path:url(#clip-path);}.cls-3{fill:#d99493;}</style><clipPath id="clip-path" transform="translate(-509 -1073.72)"><rect class="cls-1" x="509" y="1073.72" width="139.55" height="19"/></clipPath></defs><title>HedyKapri_pieni</title><g class="cls-2"><path class="cls-3" d="M521,1092.72h1.33v-19H521v8.63H510.33v-8.63H509v19h1.33v-9.16H521Zm5.86,0h11.28v-1.16h-10v-8h9.16v-1.18h-9.16v-7.45H538v-1.18H526.84Zm27.3-5.78a6.48,6.48,0,0,1-1.58,2.59A6.39,6.39,0,0,1,550,1091a11.41,11.41,0,0,1-3.45.48h-3.33v-16.58h3.33a8.53,8.53,0,0,1,6,2c1.41,1.29,2.11,3.4,2.11,6.31a11.9,11.9,0,0,1-.53,3.75m-.54,3.36q2.4-2.43,2.4-7.11t-2.4-7.06q-2.39-2.42-7-2.41H541.9v19h4.66q4.65,0,7-2.42m10.83-5.47,6.54-11.11h-1.41l-5.78,9.92h0l-5.78-9.92h-1.41l6.54,11.11v7.89h1.32Zm17.29,7.89h1.33v-19h-1.33Zm14.08,0-8.24-9.5,8.24-9.5h-1.58l-8.24,9.5,8.24,9.5Zm13.68-6.74h-8l2.57-6.79,1.38-4.06h0l1.36,4Zm2.51,6.74h1.35l-7.22-19h-1.26l-7.22,19H599l2.06-5.61h8.88Zm14.7-13.31a4.37,4.37,0,0,1-1.31,3.39,5.16,5.16,0,0,1-3.62,1.21H617.5v-9.11H622a4.8,4.8,0,0,1,3.54,1.2,4.5,4.5,0,0,1,1.19,3.31m.86,2.44a6.1,6.1,0,0,0,.47-2.44,6.37,6.37,0,0,0-.41-2.31,5.08,5.08,0,0,0-1.18-1.79,5.4,5.4,0,0,0-1.91-1.17,7.27,7.27,0,0,0-2.56-.42h-5.78v19h1.32v-7.53h4.26a7.91,7.91,0,0,0,2.54-.39,5.53,5.53,0,0,0,2-1.13,5,5,0,0,0,1.28-1.82m10,1.71h-5.1v-8.66h5.3a4.91,4.91,0,0,1,3.54,1.15,4.11,4.11,0,0,1,1.2,3.14,4.07,4.07,0,0,1-1.31,3.21,5.33,5.33,0,0,1-3.63,1.16m6.38,9.16-4.94-8.09a6,6,0,0,0,3.51-1.76,5.18,5.18,0,0,0,1.31-3.68,5.79,5.79,0,0,0-.41-2.23,4.64,4.64,0,0,0-1.18-1.73,5.5,5.5,0,0,0-1.9-1.12,7.88,7.88,0,0,0-2.57-.39h-6.62v19h1.32v-8h5.16l4.85,8Zm4.67-19h-1.32v19h1.32Z" transform="translate(-509 -1073.72)"/></g></svg>