<svg id="Layer_1" data-name="Layer 1" xmlns="http://www.w3.org/2000/svg" xmlns:xlink="http://www.w3.org/1999/xlink" viewBox="0 0 280 38.12"><defs><style>.cls-1{fill:none;}.cls-2{clip-path:url(#clip-path);}.cls-3{fill:#d99493;}</style><clipPath id="clip-path" transform="translate(-439 -1064.6)"><rect class="cls-1" x="439" y="1064.6" width="280" height="38.12"/></clipPath></defs><title>HedyKapri</title><g class="cls-2"><path class="cls-3" d="M463,1102.72h2.66V1064.6H463v17.31H441.66V1064.6H439v38.12h2.66v-18.38H463Zm11.76,0h22.62v-2.32h-20v-16.12h18.38v-2.37H477.46V1067h19.62v-2.37H474.8Zm54.76-11.6a12.26,12.26,0,0,1-8.28,8.21,22.94,22.94,0,0,1-6.93,1h-6.67V1067h6.67q7.8,0,12,3.9t4.24,12.67a23.33,23.33,0,0,1-1.08,7.52m-1.07,6.74q4.8-4.87,4.81-14.26t-4.81-14.17q-4.82-4.83-14.14-4.83H505v38.12h9.33q9.33,0,14.14-4.86m21.73-11,13.12-22.28h-2.83l-11.59,19.91h-.06l-11.59-19.91h-2.83l13.12,22.28v15.84h2.66Zm34.69,15.84h2.66V1064.6h-2.66Zm28.25,0-16.54-19.06,16.54-19.06H610l-16.54,19.06L610,1102.72Zm27.44-13.52h-16l5.15-13.63,2.77-8.14h.11l2.72,8Zm5,13.52h2.72l-14.48-38.12h-2.55l-14.48,38.12h2.72l4.13-11.26H641.5Zm29.51-26.7a8.79,8.79,0,0,1-2.63,6.79,10.3,10.3,0,0,1-7.27,2.43H656.7V1067h8.94c3.13,0,5.49.81,7.1,2.41a9,9,0,0,1,2.4,6.64m1.72,4.9a12.23,12.23,0,0,0,.94-4.9,12.72,12.72,0,0,0-.82-4.63,10,10,0,0,0-2.38-3.6,11,11,0,0,0-3.82-2.34,14.47,14.47,0,0,0-5.14-.85H654v38.12h2.66v-15.1h8.54a15.84,15.84,0,0,0,5.09-.79,11.32,11.32,0,0,0,4-2.27,10.22,10.22,0,0,0,2.57-3.64m20,3.42H686.59V1067h10.64c3.12,0,5.49.77,7.09,2.29a8.32,8.32,0,0,1,2.41,6.31,8.17,8.17,0,0,1-2.63,6.45,10.61,10.61,0,0,1-7.27,2.32m12.78,18.38-9.9-16.23a12.08,12.08,0,0,0,7-3.54,10.33,10.33,0,0,0,2.63-7.38,12,12,0,0,0-.82-4.47,9.69,9.69,0,0,0-2.38-3.48,10.82,10.82,0,0,0-3.82-2.23,15.46,15.46,0,0,0-5.14-.79h-13.3v38.12h2.66v-16h10.35l9.73,16ZM719,1064.6h-2.66v38.12H719Z" transform="translate(-439 -1064.6)"/></g></svg>