<svg id="Layer_1" data-name="Layer 1" xmlns="http://www.w3.org/2000/svg" viewBox="0 0 500 153.79"><defs><style>.cls-1{fill:#d6e2e4;}</style></defs><title>kuosi_lyhyt</title><path class="cls-1" d="M330.35,1082.82l30.49-35.5,30.49,35.5-30.49,35.51ZM329,1005.93v1h31.33v38.73H329v1h31l-31,36.13L360,1119H329v1h31.33v38.72H329v1h63.68v-1H361.35V1120h31.33v-1h-31l31-36.14-31-36.13h31v-1H361.35v-38.73h31.33v-1Z" transform="translate(-329 -1005.93)"/><path class="cls-1" d="M392.68,1082.82l30.49-35.5,30.49,35.5-30.49,35.51Zm-1.35-76.89v1h31.33v38.73H391.33v1h31l-31,36.13,31,36.14h-31v1h31.33v38.72H391.33v1H455v-1H423.68V1120H455v-1H424l31-36.14-31-36.13h31v-1H423.68v-38.73H455v-1Z" transform="translate(-329 -1005.93)"/><path class="cls-1" d="M455,1082.82l30.49-35.5,30.5,35.5-30.5,35.51Zm-1.35-76.89v1H485v38.73H453.66v1h31l-31,36.13,31,36.14h-31v1H485v38.72H453.66v1h63.68v-1H486V1120h31.33v-1h-31l31-36.14-31-36.13h31v-1H486v-38.73h31.33v-1Z" transform="translate(-329 -1005.93)"/><path class="cls-1" d="M517.34,1082.82l30.49-35.5,30.5,35.5-30.5,35.51ZM516,1005.93v1h31.33v38.73H516v1h31l-31,36.13L547,1119H516v1h31.33v38.72H516v1h63.68v-1H548.34V1120h31.33v-1h-31l31-36.14-31-36.13h31v-1H548.34v-38.73h31.33v-1Z" transform="translate(-329 -1005.93)"/><path class="cls-1" d="M579.67,1082.82l30.5-35.5,30.49,35.5-30.49,35.51Zm-1.34-76.89v1h31.33v38.73H578.33v1h31l-31,36.13,31,36.14h-31v1h31.33v38.72H578.33v1H642v-1H610.68V1120H642v-1H611l31-36.14-31-36.13h31v-1H610.68v-38.73H642v-1Z" transform="translate(-329 -1005.93)"/><path class="cls-1" d="M642,1082.82l30.49-35.5,30.49,35.5-30.49,35.51Zm-1.35-76.89v1H672v38.73H640.66v1h31l-31,36.13,31,36.14h-31v1H672v38.72H640.66v1h63.68v-1H673V1120h31.33v-1h-31l31-36.14-31-36.13h31v-1H673v-38.73h31.33v-1Z" transform="translate(-329 -1005.93)"/><path class="cls-1" d="M704.34,1082.82l30.49-35.5,30.49,35.5-30.49,35.51ZM703,1005.93v1h31.33v38.73H703v1h31l-31,36.13L734,1119H703v1h31.33v38.72H703v1h63.68v-1H735.34V1120h31.33v-1h-31l31-36.14-31-36.13h31v-1H735.34v-38.73h31.33v-1Z" transform="translate(-329 -1005.93)"/><path class="cls-1" d="M766.67,1082.82l30.49-35.5,30.49,35.5-30.49,35.51Zm-1.35-76.89v1h31.33v38.73H765.32v1h31l-31,36.13,31,36.14h-31v1h31.33v38.72H765.32v1H829v-1H797.67V1120H829v-1H798l31-36.14-31-36.13h31v-1H797.67v-38.73H829v-1Z" transform="translate(-329 -1005.93)"/></svg>